<svg width="20" height="20" viewBox="0 0 20 20" fill="none" xmlns="http://www.w3.org/2000/svg">
<path fill-rule="evenodd" clip-rule="evenodd" d="M2.5 8.68087C2.5 6.01622 2.5 4.68389 2.8146 4.23567C3.12919 3.78744 4.38194 3.35862 6.88743 2.50099L7.36477 2.33759C8.67082 1.89052 9.32384 1.66699 10 1.66699C10.6762 1.66699 11.3292 1.89052 12.6352 2.33759L13.1126 2.50099C15.6181 3.35862 16.8708 3.78744 17.1854 4.23567C17.5 4.68389 17.5 6.01622 17.5 8.68087V9.99312C17.5 14.6915 13.9675 16.9716 11.7512 17.9397C11.15 18.2023 10.8494 18.3337 10 18.3337C9.15062 18.3337 8.85001 18.2023 8.2488 17.9397C6.03247 16.9716 2.5 14.6915 2.5 9.99312V8.68087ZM10 6.04199C10.3452 6.04199 10.625 6.32181 10.625 6.66699V10.0003C10.625 10.3455 10.3452 10.6253 10 10.6253C9.65482 10.6253 9.375 10.3455 9.375 10.0003V6.66699C9.375 6.32181 9.65482 6.04199 10 6.04199ZM10 13.3337C10.4602 13.3337 10.8333 12.9606 10.8333 12.5003C10.8333 12.0401 10.4602 11.667 10 11.667C9.53976 11.667 9.16667 12.0401 9.16667 12.5003C9.16667 12.9606 9.53976 13.3337 10 13.3337Z" fill="#FF5A5F"/>
</svg>
