<svg width="25" height="24" viewBox="0 0 25 24" fill="none" xmlns="http://www.w3.org/2000/svg">
<path d="M9.344 21.006C8.7152 20.972 8.12348 20.6978 7.691 20.24C7.1736 19.7423 6.71188 19.1897 6.314 18.592C5.69248 17.702 5.20119 16.7279 4.855 15.699C4.46321 14.5922 4.25709 13.4281 4.245 12.254C4.21456 11.102 4.49986 9.96356 5.07 8.96202C5.48758 8.24012 6.08319 7.63728 6.8 7.21102C7.50889 6.78659 8.31782 6.55813 9.144 6.54902C9.76682 6.58587 10.3789 6.72823 10.954 6.97002C11.413 7.17202 11.895 7.31402 12.39 7.39202C12.936 7.27764 13.4696 7.11018 13.983 6.89202C14.5907 6.65476 15.2341 6.52188 15.886 6.49902C15.973 6.49902 16.059 6.49902 16.142 6.50902C17.572 6.55002 18.902 7.25202 19.742 8.40902C19.0864 8.75965 18.5409 9.28521 18.1661 9.92728C17.7914 10.5693 17.602 11.3028 17.619 12.046C17.6125 12.6144 17.7265 13.1776 17.9535 13.6987C18.1805 14.2198 18.5153 14.6868 18.936 15.069C19.319 15.4338 19.7648 15.7262 20.252 15.932C20.152 16.232 20.037 16.522 19.915 16.814C19.638 17.4593 19.2963 18.0748 18.895 18.651C18.5156 19.2283 18.0739 19.7622 17.578 20.243C17.1256 20.6919 16.5226 20.9567 15.886 20.986C15.3464 20.9621 14.8162 20.8355 14.324 20.613C13.7932 20.3818 13.2228 20.2551 12.644 20.24C12.0489 20.2518 11.4616 20.3777 10.914 20.611C10.441 20.8244 9.93575 20.9572 9.419 21.004L9.344 21.006ZM12.494 6.49902C12.419 6.49902 12.344 6.49902 12.269 6.49002C12.2532 6.37099 12.2449 6.25109 12.244 6.13102C12.2767 5.13216 12.6671 4.17826 13.344 3.44302C13.7226 3.02048 14.1815 2.67749 14.694 2.43402C15.1716 2.18818 15.6935 2.04028 16.229 1.99902C16.244 2.13002 16.244 2.25802 16.244 2.38002C16.2299 3.36319 15.8605 4.30805 15.204 5.04002C14.8861 5.46624 14.4788 5.81772 14.0106 6.06977C13.5425 6.32182 13.0248 6.46833 12.494 6.49902Z" fill="#0F172A"/>
</svg>
