<svg width="40" height="40" viewBox="0 0 40 40" fill="none" xmlns="http://www.w3.org/2000/svg">
<rect width="40" height="40" rx="20" fill="#6B39F4"/>
<path d="M25.0001 12.5H15.0001C13.1584 12.5 11.6667 13.9833 11.6667 15.8083V24.1917C11.6667 26.0167 13.1584 27.5 15.0001 27.5H25.0001C26.8417 27.5 28.3334 26.0167 28.3334 24.1917V15.8083C28.3334 13.9833 26.8417 12.5 25.0001 12.5ZM17.0834 15.975C18.1417 15.975 19.0084 16.8417 19.0084 17.9C19.0084 18.9583 18.1417 19.825 17.0834 19.825C16.0251 19.825 15.1584 18.9583 15.1584 17.9C15.1584 16.8417 16.0251 15.975 17.0834 15.975ZM20.3084 23.8833C20.2334 23.9667 20.1167 24.0167 20.0001 24.0167H14.1667C14.0501 24.0167 13.9334 23.9667 13.8584 23.8833C13.7834 23.8 13.7417 23.6833 13.7501 23.5667C13.8917 22.1667 15.0084 21.0583 16.4084 20.925C16.8501 20.8833 17.3084 20.8833 17.7501 20.925C19.1501 21.0583 20.2751 22.1667 20.4084 23.5667C20.4251 23.6833 20.3834 23.8 20.3084 23.8833ZM25.8334 23.9583H24.1667C23.8251 23.9583 23.5417 23.675 23.5417 23.3333C23.5417 22.9917 23.8251 22.7083 24.1667 22.7083H25.8334C26.1751 22.7083 26.4584 22.9917 26.4584 23.3333C26.4584 23.675 26.1751 23.9583 25.8334 23.9583ZM25.8334 20.625H22.5001C22.1584 20.625 21.8751 20.3417 21.8751 20C21.8751 19.6583 22.1584 19.375 22.5001 19.375H25.8334C26.1751 19.375 26.4584 19.6583 26.4584 20C26.4584 20.3417 26.1751 20.625 25.8334 20.625ZM25.8334 17.2917H21.6667C21.3251 17.2917 21.0417 17.0083 21.0417 16.6667C21.0417 16.325 21.3251 16.0417 21.6667 16.0417H25.8334C26.1751 16.0417 26.4584 16.325 26.4584 16.6667C26.4584 17.0083 26.1751 17.2917 25.8334 17.2917Z" fill="white"/>
</svg>
