<svg width="40" height="40" viewBox="0 0 40 40" fill="none" xmlns="http://www.w3.org/2000/svg">
<rect width="40" height="40" rx="20" fill="white"/>
<path d="M23.3334 13.5417C23.3334 14.575 22.4917 15.4167 21.4584 15.4167H18.5417C18.0251 15.4167 17.5584 15.2083 17.2167 14.8667C16.8751 14.525 16.6667 14.0583 16.6667 13.5417C16.6667 12.5083 17.5084 11.6667 18.5417 11.6667H21.4584C21.9751 11.6667 22.4417 11.875 22.7834 12.2167C23.1251 12.5583 23.3334 13.025 23.3334 13.5417Z" fill="#6B39F4"/>
<path d="M25.6916 14.1917C25.4999 14.0333 25.2833 13.9083 25.0499 13.8167C24.8083 13.725 24.5666 13.9167 24.5166 14.1667C24.2333 15.5917 22.9749 16.6667 21.4583 16.6667H18.5416C17.7083 16.6667 16.9249 16.3417 16.3333 15.75C15.8999 15.3167 15.5999 14.7667 15.4833 14.175C15.4333 13.925 15.1833 13.725 14.9416 13.825C13.9749 14.2167 13.3333 15.1 13.3333 16.875V25C13.3333 27.5 14.8249 28.3333 16.6666 28.3333H23.3333C25.1749 28.3333 26.6666 27.5 26.6666 25V16.875C26.6666 15.5167 26.2916 14.6833 25.6916 14.1917ZM16.6666 20.2083H19.9999C20.3416 20.2083 20.6249 20.4917 20.6249 20.8333C20.6249 21.175 20.3416 21.4583 19.9999 21.4583H16.6666C16.3249 21.4583 16.0416 21.175 16.0416 20.8333C16.0416 20.4917 16.3249 20.2083 16.6666 20.2083ZM23.3333 24.7917H16.6666C16.3249 24.7917 16.0416 24.5083 16.0416 24.1667C16.0416 23.825 16.3249 23.5417 16.6666 23.5417H23.3333C23.6749 23.5417 23.9583 23.825 23.9583 24.1667C23.9583 24.5083 23.6749 24.7917 23.3333 24.7917Z" fill="#6B39F4"/>
</svg>
