<svg width="24" height="24" viewBox="0 0 24 24" fill="none" xmlns="http://www.w3.org/2000/svg">
<path d="M19.28 4.66995V13.3499C19.6262 13.4306 19.9618 13.5515 20.28 13.7099V3.64995C20.28 3.0983 20.0609 2.56924 19.6708 2.17916C19.2807 1.78909 18.7516 1.56995 18.2 1.56995H5.76C5.40345 1.5731 5.05382 1.66876 4.74532 1.84755C4.43681 2.02634 4.18 2.28215 4 2.58995H17.2C17.7516 2.58995 18.2807 2.80909 18.6708 3.19916C19.0609 3.58924 19.28 4.1183 19.28 4.66995Z" fill="#161616"/>
<path d="M18.24 13.24V5.77996C18.2374 5.23005 18.0171 4.70355 17.6273 4.31564C17.2375 3.92772 16.7099 3.70995 16.16 3.70996H3.68001C3.13008 3.70995 2.60254 3.92772 2.21275 4.31564C1.82296 4.70355 1.60265 5.23005 1.60001 5.77996V19.31C1.60001 19.8616 1.81915 20.3907 2.20922 20.7807C2.5993 21.1708 3.12836 21.39 3.68001 21.39H14.4C13.8071 20.6591 13.4324 19.7758 13.3192 18.8415C13.2059 17.9073 13.3586 16.96 13.7597 16.1087C14.1609 15.2573 14.7941 14.5365 15.5867 14.029C16.3792 13.5215 17.2989 13.248 18.24 13.24ZM12.41 11.54C12.505 11.5267 12.6019 11.5356 12.6929 11.5661C12.7839 11.5965 12.8665 11.6477 12.9344 11.7156C13.0023 11.7834 13.0534 11.8661 13.0839 11.9571C13.1144 12.0481 13.1233 12.1449 13.11 12.24C13.1238 12.3346 13.115 12.4312 13.0846 12.5219C13.0541 12.6126 13.0027 12.6949 12.9346 12.762C12.8664 12.8292 12.7834 12.8794 12.6923 12.9086C12.6012 12.9377 12.5045 12.9451 12.41 12.93H10.65V13.56H12.41C12.505 13.5467 12.6019 13.5556 12.6929 13.5861C12.7839 13.6165 12.8665 13.6677 12.9344 13.7356C13.0023 13.8034 13.0534 13.8861 13.0839 13.9771C13.1144 14.0681 13.1233 14.1649 13.11 14.26C13.1238 14.3546 13.115 14.4512 13.0846 14.5419C13.0541 14.6326 13.0027 14.7149 12.9346 14.782C12.8664 14.8492 12.7834 14.8994 12.6923 14.9286C12.6012 14.9577 12.5045 14.9651 12.41 14.95H10.65V16.4C10.6788 16.6263 10.6294 16.8556 10.51 17.05C10.3382 17.1789 10.1232 17.2363 9.91001 17.21C9.70723 17.2241 9.50583 17.1675 9.34001 17.05C9.20059 16.8638 9.13957 16.6305 9.17001 16.4V15H7.43001C7.33553 15.0151 7.23882 15.0077 7.1477 14.9786C7.05658 14.9494 6.97359 14.8992 6.90545 14.832C6.83732 14.7649 6.78593 14.6826 6.75545 14.5919C6.72497 14.5012 6.71626 14.4046 6.73001 14.31C6.71527 14.2164 6.72251 14.1207 6.75115 14.0305C6.7798 13.9402 6.82906 13.8579 6.89503 13.79C6.96101 13.7221 7.04189 13.6704 7.13127 13.6392C7.22066 13.608 7.31609 13.5979 7.41001 13.61H9.17001V12.98H7.43001C7.33553 12.9951 7.23882 12.9877 7.1477 12.9586C7.05658 12.9294 6.97359 12.8792 6.90545 12.812C6.83732 12.7449 6.78593 12.6626 6.75545 12.5719C6.72497 12.4812 6.71626 12.3846 6.73001 12.29C6.71527 12.1964 6.72251 12.1007 6.75115 12.0105C6.7798 11.9202 6.82906 11.8379 6.89503 11.77C6.96101 11.7021 7.04189 11.6504 7.13127 11.6192C7.22066 11.588 7.31609 11.5779 7.41001 11.59H8.41001L7.63001 10.3L6.87001 9.05996C6.74932 8.89236 6.69906 8.68416 6.73001 8.47996C6.76253 8.3104 6.85925 8.15994 7.00001 8.05996C7.14881 7.93911 7.33918 7.88164 7.53001 7.89996C7.69001 7.89996 7.85001 8.05996 8.00001 8.30996L9.90001 11.48L10.82 9.90996C11.13 9.38996 11.44 8.90996 11.74 8.34996C11.8115 8.22274 11.8988 8.10513 12 7.99996C12.0628 7.93049 12.1475 7.88461 12.24 7.86996C12.3215 7.8452 12.4085 7.8452 12.49 7.86996L12.76 8.00996C12.8433 8.05035 12.9162 8.10916 12.9734 8.18192C13.0306 8.25469 13.0705 8.33951 13.09 8.42996C13.0925 8.63281 13.0332 8.8316 12.92 8.99996L11.42 11.48L12.41 11.54Z" fill="#161616"/>
<rect x="4.8" y="5.08826" width="8.4" height="13.2" fill="#161616"/>
<rect x="14.2395" y="14.1902" width="8" height="8" rx="4" fill="#161616"/>
<path d="M18.2395 14.1902C17.4483 14.1902 16.675 14.4248 16.0172 14.8643C15.3594 15.3038 14.8467 15.9285 14.5439 16.6595C14.2412 17.3904 14.162 18.1946 14.3163 18.9705C14.4707 19.7465 14.8516 20.4592 15.411 21.0186C15.9704 21.578 16.6832 21.959 17.4591 22.1133C18.235 22.2677 19.0393 22.1885 19.7702 21.8857C20.5011 21.583 21.1258 21.0703 21.5653 20.4125C22.0049 19.7547 22.2395 18.9813 22.2395 18.1902C22.2395 17.1293 21.818 16.1119 21.0679 15.3618C20.3177 14.6116 19.3003 14.1902 18.2395 14.1902ZM20.6095 17.2802L18.8195 19.1602C18.7733 19.209 18.7174 19.2476 18.6554 19.2734C18.5934 19.2992 18.5266 19.3118 18.4595 19.3102C18.3286 19.2919 18.2046 19.2403 18.0995 19.1602L17.5295 18.5802L16.6095 19.6302C16.5612 19.6832 16.5026 19.7256 16.4372 19.7549C16.3718 19.7841 16.3011 19.7996 16.2295 19.8002C16.1073 19.7986 15.9899 19.7524 15.8995 19.6702C15.8078 19.5767 15.7565 19.4511 15.7565 19.3202C15.7565 19.1893 15.8078 19.0636 15.8995 18.9702L17.1795 17.5102C17.2728 17.4089 17.4019 17.3479 17.5395 17.3402C17.6083 17.3372 17.6769 17.349 17.7408 17.3749C17.8046 17.4008 17.8622 17.4401 17.9095 17.4902L18.4995 18.0902L19.9295 16.5902C19.9732 16.5371 20.0275 16.4937 20.0888 16.4625C20.1502 16.4314 20.2173 16.4133 20.2859 16.4093C20.3546 16.4053 20.4234 16.4154 20.4879 16.4392C20.5525 16.463 20.6114 16.4998 20.6611 16.5474C20.7107 16.595 20.75 16.6523 20.7765 16.7158C20.803 16.7793 20.8161 16.8476 20.8151 16.9163C20.814 16.9851 20.7987 17.0529 20.7702 17.1155C20.7417 17.1781 20.7006 17.2342 20.6495 17.2802H20.6095Z" fill="#161616"/>
<path d="M19.8316 16.8679C20.224 16.8679 20.5336 16.9939 20.7604 17.2495C20.9764 17.4907 21.0844 17.8111 21.0844 18.2071C21.0844 18.6031 20.9764 18.9199 20.7604 19.1611C20.5336 19.4131 20.224 19.5391 19.8316 19.5391C19.4356 19.5391 19.126 19.4095 18.9028 19.1575C18.6868 18.9127 18.5824 18.5959 18.5824 18.2071C18.5824 17.8147 18.6868 17.4979 18.9028 17.2531C19.126 16.9939 19.4356 16.8679 19.8316 16.8679ZM19.8316 17.2387C19.5652 17.2387 19.36 17.3287 19.2124 17.5087C19.072 17.6815 19.0036 17.9119 19.0036 18.2071C19.0036 18.4987 19.072 18.7291 19.2124 18.9019C19.3564 19.0783 19.5652 19.1683 19.8316 19.1683C20.098 19.1683 20.3032 19.0819 20.4472 18.9127C20.5876 18.7435 20.6596 18.5095 20.6596 18.2071C20.6596 17.9047 20.5876 17.6671 20.4472 17.4943C20.3032 17.3215 20.098 17.2387 19.8316 17.2387Z" fill="white"/>
<path d="M15.4395 16.9183H15.9327L16.8075 18.9343H16.8219L17.6931 16.9183H18.1863V19.4887H17.7651V17.7175H17.7507L16.9947 19.4887H16.6311L15.8751 17.7175H15.8607V19.4887H15.4395V16.9183Z" fill="white"/>
<g clip-path="url(#clip0_5701_56665)">
<path d="M12.8731 13.8098C12.8731 14.9692 12.065 15.9599 10.568 16.2073V17.5499H9.27678V16.3111C8.40308 16.2724 7.55702 16.0248 7.06171 15.7505L7.45178 14.2261C7.99901 14.5255 8.76807 14.7999 9.61553 14.7999C10.3718 14.7999 10.8793 14.5004 10.8793 13.9923C10.8793 13.4972 10.4613 13.1836 9.48407 12.8574C8.09082 12.388 7.13985 11.7373 7.13985 10.4729C7.13985 9.31347 7.94655 8.41356 9.34036 8.15292V6.91479H10.6187V8.06112C11.4787 8.08792 12.065 8.28237 12.5212 8.49224L12.13 9.96479C11.8038 9.80738 11.1913 9.50743 10.2531 9.50743C9.40709 9.50743 9.13248 9.88553 9.13248 10.2505C9.13248 10.6668 9.58931 10.9548 10.7099 11.3575C12.2601 11.9055 12.8725 12.6224 12.8731 13.8098Z" fill="white"/>
</g>
<defs>
<clipPath id="clip0_5701_56665">
<rect width="12" height="12" fill="white" transform="translate(3.9996 6.24023)"/>
</clipPath>
</defs>
</svg>
