<svg width="24" height="24" viewBox="0 0 24 24" fill="none" xmlns="http://www.w3.org/2000/svg">
<path d="M22.261 12.0648C22.4563 12.3725 22.56 12.7295 22.56 13.0939V19.68C22.56 20.4438 22.2566 21.1764 21.7165 21.7165C21.1764 22.2566 20.4438 22.56 19.68 22.56H4.32C3.55618 22.56 2.82364 22.2566 2.28354 21.7165C1.74343 21.1764 1.44 20.4438 1.44 19.68V13.1011C1.44001 12.757 1.53253 12.4191 1.70787 12.123C1.88322 11.8268 2.13495 11.5832 2.43672 11.4177C2.73848 11.2522 3.07919 11.1709 3.42317 11.1822C3.76716 11.1935 4.10177 11.2971 4.392 11.4821L11.9798 16.32L19.6104 11.4735C19.8233 11.3382 20.0607 11.2462 20.3091 11.2027C20.5575 11.1593 20.812 11.1652 21.0582 11.2201C21.3043 11.275 21.5372 11.3779 21.7436 11.5228C21.95 11.6677 22.1258 11.8519 22.261 12.0648ZM16.8 2.40002C17.5638 2.40002 18.2964 2.70345 18.8365 3.24356C19.3766 3.78366 19.68 4.5162 19.68 5.28002V10.08L12.0158 14.88L4.32 10.08V5.28002C4.32 4.5162 4.62343 3.78366 5.16354 3.24356C5.70364 2.70345 6.43618 2.40002 7.2 2.40002H16.8Z" fill="#131415"/>
<path d="M12.5967 10.7942C12.438 10.9516 12.2235 11.0399 12 11.0399C11.7765 11.0399 11.5621 10.9516 11.4034 10.7942L9.21649 8.61978L9.18577 8.58906C8.83045 8.22042 8.63448 7.72674 8.64023 7.21477C8.64598 6.70279 8.85298 6.21364 9.21649 5.85306C9.58669 5.48599 10.0869 5.28003 10.6083 5.28003C11.1296 5.28003 11.6298 5.48599 12 5.85306C12.3702 5.48599 12.8704 5.28003 13.3918 5.28003C13.9131 5.28003 14.4133 5.48599 14.7835 5.85306C15.1462 6.21287 15.3531 6.70068 15.3596 7.2115C15.3662 7.72231 15.1719 8.21528 14.8186 8.58426L14.7835 8.62026L12.5967 10.7947V10.7942Z" fill="white"/>
</svg>
