<svg width="24" height="24" viewBox="0 0 24 24" fill="none" xmlns="http://www.w3.org/2000/svg">
<path d="M12 11C12.6566 11 13.3068 11.1293 13.9134 11.3806C14.52 11.6319 15.0712 12.0002 15.5355 12.4645C15.9998 12.9288 16.3681 13.48 16.6194 14.0866C16.8707 14.6932 17 15.3434 17 16V22H7V16C7 15.3434 7.12933 14.6932 7.3806 14.0866C7.63188 13.48 8.00017 12.9288 8.46447 12.4645C8.92876 12.0002 9.47996 11.6319 10.0866 11.3806C10.6932 11.1293 11.3434 11 12 11ZM5.288 14.006C5.12887 14.5428 5.03486 15.0968 5.008 15.656L5 16V22H2V17.5C1.9998 16.6376 2.31803 15.8054 2.89363 15.1632C3.46924 14.521 4.2617 14.1139 5.119 14.02L5.289 14.006H5.288ZM18.712 14.006C19.6019 14.0602 20.4376 14.452 21.0486 15.1012C21.6596 15.7505 21.9999 16.6084 22 17.5V22H19V16C19 15.307 18.9 14.638 18.712 14.006ZM5.5 8C5.82831 8 6.1534 8.06466 6.45671 8.1903C6.76002 8.31594 7.03562 8.50009 7.26777 8.73223C7.49991 8.96438 7.68406 9.23998 7.8097 9.54329C7.93534 9.84661 8 10.1717 8 10.5C8 10.8283 7.93534 11.1534 7.8097 11.4567C7.68406 11.76 7.49991 12.0356 7.26777 12.2678C7.03562 12.4999 6.76002 12.6841 6.45671 12.8097C6.1534 12.9353 5.82831 13 5.5 13C4.83696 13 4.20107 12.7366 3.73223 12.2678C3.26339 11.7989 3 11.163 3 10.5C3 9.83696 3.26339 9.20107 3.73223 8.73223C4.20107 8.26339 4.83696 8 5.5 8ZM18.5 8C18.8283 8 19.1534 8.06466 19.4567 8.1903C19.76 8.31594 20.0356 8.50009 20.2678 8.73223C20.4999 8.96438 20.6841 9.23998 20.8097 9.54329C20.9353 9.84661 21 10.1717 21 10.5C21 10.8283 20.9353 11.1534 20.8097 11.4567C20.6841 11.76 20.4999 12.0356 20.2678 12.2678C20.0356 12.4999 19.76 12.6841 19.4567 12.8097C19.1534 12.9353 18.8283 13 18.5 13C17.837 13 17.2011 12.7366 16.7322 12.2678C16.2634 11.7989 16 11.163 16 10.5C16 9.83696 16.2634 9.20107 16.7322 8.73223C17.2011 8.26339 17.837 8 18.5 8ZM12 2C13.0609 2 14.0783 2.42143 14.8284 3.17157C15.5786 3.92172 16 4.93913 16 6C16 7.06087 15.5786 8.07828 14.8284 8.82843C14.0783 9.57857 13.0609 10 12 10C10.9391 10 9.92172 9.57857 9.17157 8.82843C8.42143 8.07828 8 7.06087 8 6C8 4.93913 8.42143 3.92172 9.17157 3.17157C9.92172 2.42143 10.9391 2 12 2Z" fill="#161616"/>
</svg>
