<?xml version="1.0" standalone="no"?><!DOCTYPE svg PUBLIC "-//W3C//DTD SVG 1.1//EN" "http://www.w3.org/Graphics/SVG/1.1/DTD/svg11.dtd"><svg t="1775570900322" class="icon" viewBox="0 0 1024 1024" version="1.1" xmlns="http://www.w3.org/2000/svg" p-id="7326" width="22" height="22" xmlns:xlink="http://www.w3.org/1999/xlink"><path d="M857.778 338.904c4.125-19.115 6.325-38.95 6.325-59.3C864.103 125.182 738.913 0 584.494 0 448.319 0 334.902 97.35 309.992 226.249c-0.6 2.817-1.17 5.65-1.672 8.517-25.077 5.185-62.277-8.9-62.277-8.9l-45.755-6.352 13.982 123.282c0 0-104.217 80.61-110.572 176.292-26.527 3.515-35.715 2.18-69.902 10.535s-29.967 44.48-29.967 44.48l0 156.325c0 0 4.55 36.86 33.78 38.13 39.955 0.27 45.067-0.32 63.547 0 9.095 20.135 55.167 134.795 125.825 158.87-0.027 36.82-0.705 48.375 0 62.275 0.702 13.895 17.792 34.295 35.582 34.295 17.795 0 99.975 0 128.367 0 28.392 0 31.772-37.745 31.772-37.745l222.412-0.36c0 0 2.54 38.105 39.395 38.105 36.86 0 111.415 0 114.385 0 2.975 0 41.945-14.96 41.945-45.73 0-30.78 0-38.135 0-38.135S1233.167 672.698 857.778 338.904zM432.981 573.864c-0.955 3.555-4.782 11.545-15.847 11.475-7.31 0.16-14.892-1.57-18.582-9.835-4.37-15.235-5.737-37.57-43.172-37.71-25.137 1.64-27.325 27.87-31.152 37.71-1.775 6.425-5.327 8.135-8.742 9.835-3.415 1.71-16.942 2.6-20.22 0-3.28-2.595-4.03-2.045-5.465-11.475-0.97-6.375-8.197-73.23 71.045-72.685C439.131 501.656 433.939 570.314 432.981 573.864zM770.608 396.874c-135.65 9.135-226.984 20.672-374.389-1.427-27.952-4.193-33.582-74.175-33.582-117.232 0-122.18 99.047-221.224 221.227-221.224s221.224 99.045 221.224 221.224C805.088 321.874 811.168 394.144 770.608 396.874zM702.718 223.754c16.03-1.055 24.575-9.07 25.65-24.05-1.075-13.875-9.615-21.365-25.65-22.442l-55.325 0c7.46-18.16 11.745-33.112 12.825-44.885 1.05-11.75-4.81-18.685-17.63-20.845-13.905-1.05-22.995 4.285-27.255 16.035-3.21 12.822-8.02 28.327-14.43 46.49 0-1.055-0.555 0-1.605 3.205l-28.48 0c-10.7-24.572-21.395-43.81-32.065-57.712-8.565-9.617-19.235-11.745-32.06-6.415-11.777 6.415-14.98 15.507-9.62 27.255 3.205 5.36 6.937 12.3 11.225 20.84 4.255 6.412 7.46 11.772 9.615 16.032l-49.31 0c-13.905 1.075-21.392 8.567-22.445 22.442 1.053 14.98 8.54 22.995 22.445 24.047l92.21 0 0 49.695-89.005 0c-14.98 1.077-22.995 8.567-24.047 22.442 1.052 13.905 8.542 21.392 22.442 22.447l90.61 0 0 43.987c1.055 16.03 9.615 24.575 25.645 25.65 16.03-2.155 24.57-11.222 25.655-27.252l0-42.385 89 0c13.885-1.055 21.365-8.542 22.44-22.447-1.07-13.875-8.555-21.365-22.44-22.442l-89 0 0-49.695L702.718 223.754 702.718 223.754z" fill="#272636" p-id="7327"></path></svg>