<?xml version="1.0" standalone="no"?><!DOCTYPE svg PUBLIC "-//W3C//DTD SVG 1.1//EN" "http://www.w3.org/Graphics/SVG/1.1/DTD/svg11.dtd"><svg t="1775570996784" class="icon" viewBox="0 0 1024 1024" version="1.1" xmlns="http://www.w3.org/2000/svg" p-id="8413" width="22" height="22" xmlns:xlink="http://www.w3.org/1999/xlink"><path d="M548.472261 633.751762v354.788364c0 9.4054 3.7925 18.431549 10.656924 25.068424 6.8265 6.636875 16.118125 10.39145 25.789 10.39145h255.235242c40.314274 0 72.967698-31.781149 72.967698-70.919748v-319.32849a35.004774 35.004774 0 0 0-10.69485-25.068425 36.976874 36.976874 0 0 0-25.788999-10.391449h-291.719091c-9.670875 0-18.962499 3.71665-25.789 10.391449a35.004774 35.004774 0 0 0-10.656924 25.068425z m-109.413622-35.459874H147.339548c-9.670875 0-18.962499 3.71665-25.789 10.391449a35.004774 35.004774 0 0 0-10.694849 25.068425v319.32849c0 39.138599 32.653424 70.919748 72.929773 70.919748h255.235242c9.7088 0 18.962499-3.754575 25.788999-10.39145a35.004774 35.004774 0 0 0 10.69485-25.068424V633.751762a35.004774 35.004774 0 0 0-10.656925-25.068425 36.976874 36.976874 0 0 0-25.788999-10.391449z m474.062486-354.75044H840.798152c17.255874-19.910624 28.822999-43.879224 33.487774-69.516523a145.935396 145.935396 0 0 0-42.362224-130.537846 156.099295 156.099295 0 0 0-179.954119-25.978624c-30.264149 15.54925-53.398398 41.717499-67.961598 71.867873l-72.057498 149.500345-72.664298-150.713945c-12.136-25.068424-30.188299-47.406249-53.891423-62.727948a155.98552 155.98552 0 0 0-193.417495 18.052299 145.973321 145.973321 0 0 0-42.362223 130.537846c4.7027 25.637299 16.2319 49.605899 33.487774 69.516523H110.855699C70.57935 243.503523 37.925926 275.284672 37.925926 314.423271v141.915346c0 39.176524 32.653424 70.957673 72.929773 70.957673h328.20294c9.670875 0 18.962499-3.754575 25.788999-10.39145a35.004774 35.004774 0 0 0 10.656925-25.068424V351.096745c0-17.673049 12.4394-34.056649 30.339999-36.901024 10.619-1.706625 21.465549 1.13775 29.657349 7.926325 8.1918 6.712725 12.932425 16.649075 12.97035 27.078449v142.673846c0 9.4054 3.7925 18.431549 10.656924 25.068424 6.8265 6.636875 16.118125 10.39145 25.789 10.39145h328.20294c40.276349 0 72.929773-31.781149 72.929773-70.919748V314.423271c0-39.176524-32.653424-70.919748-72.929773-70.919748z m-592.274708 0l-54.763698-25.030499a76.836048 76.836048 0 0 1-44.637724-56.735798 75.281123 75.281123 0 0 1 22.1482-68.113298 79.870048 79.870048 0 0 1 70.009548-21.503475c25.637299 4.17175 47.444174 20.403649 58.328648 43.386199l61.741898 127.996871H320.846417z m481.647486-81.766297a76.760198 76.760198 0 0 1-44.599799 56.773723l-54.763698 24.992574h-112.826872l61.703974-127.996871a78.315123 78.315123 0 0 1 58.366573-43.386199 79.907973 79.907973 0 0 1 70.009548 21.503475c18.469474 17.748899 26.775049 43.234499 22.110274 68.113298z" fill="#1B1B1B" p-id="8414"></path></svg>