<svg width="24" height="24" viewBox="0 0 24 24" fill="none" xmlns="http://www.w3.org/2000/svg">
<path d="M9.279 18.485H9.864V18.645C9.811 18.75 9.811 18.91 9.811 19.017V19.868H9.279C5.82 19.868 3.053 18.272 3.053 16.356V14.972C3 16.889 5.82 18.486 9.28 18.486L9.279 18.485ZM9.279 16.037H9.864V16.197C9.811 16.303 9.811 16.462 9.811 16.569V17.42H9.279C5.82 17.42 3.053 15.824 3.053 13.908V12.525C3 14.44 5.82 16.037 9.28 16.037H9.279ZM9.279 11.088C12.738 11.088 15.505 9.492 15.505 7.576V8.96C15.505 9.811 14.972 10.556 14.121 11.141C13.27 11.407 12.471 11.727 11.833 12.152C11.035 12.365 10.13 12.472 9.226 12.472C5.767 12.472 3 10.875 3 8.96V7.576C3 9.545 5.82 11.088 9.279 11.088ZM9.279 13.536C9.705 13.536 10.13 13.536 10.503 13.483C10.183 13.908 9.971 14.44 9.864 14.919H9.28C5.821 14.919 3.054 13.323 3.054 11.407V10.024C3 11.993 5.82 13.536 9.28 13.536H9.279ZM9.279 3C12.738 3 15.505 4.596 15.505 6.512C15.505 8.428 12.685 10.024 9.279 10.024C5.82 10.024 3.053 8.428 3.053 6.512C3 4.596 5.82 3 9.28 3H9.279ZM15.365 18.303C15.245 18.3582 15.1141 18.3855 14.982 18.383C14.8496 18.3854 14.7184 18.3581 14.598 18.303C14.4933 18.2545 14.404 18.178 14.34 18.082C14.2781 17.9836 14.2465 17.8692 14.249 17.753C14.249 17.627 14.279 17.516 14.342 17.419C14.407 17.3201 14.4975 17.2406 14.604 17.189C14.7213 17.1307 14.851 17.1015 14.982 17.104C15.124 17.104 15.249 17.132 15.359 17.189C15.469 17.244 15.555 17.321 15.619 17.419C15.6833 17.5183 15.7164 17.6347 15.714 17.753C15.7165 17.8695 15.6841 17.9841 15.621 18.082C15.5574 18.1777 15.4689 18.2541 15.365 18.303ZM15.308 16.358C15.2071 16.4092 15.0952 16.435 14.982 16.433C14.8688 16.435 14.7569 16.4092 14.656 16.358C14.5624 16.31 14.4841 16.2366 14.4302 16.1463C14.3762 16.0559 14.3488 15.9522 14.351 15.847C14.351 15.733 14.377 15.634 14.43 15.548C14.4842 15.4613 14.5614 15.3913 14.653 15.346C14.7549 15.2945 14.8678 15.2687 14.982 15.271C15.0958 15.2686 15.2085 15.2943 15.31 15.346C15.4027 15.392 15.4804 15.4635 15.5341 15.552C15.5877 15.6406 15.6151 15.7425 15.613 15.846C15.6151 15.9512 15.5876 16.0548 15.5337 16.1452C15.4798 16.2355 15.4016 16.3089 15.308 16.357V16.358ZM19.04 18.454V18.301C19.0389 18.2178 19.0614 18.1359 19.105 18.065C19.148 17.995 19.22 17.96 19.319 17.96C19.421 17.96 19.492 17.995 19.532 18.065C19.572 18.135 19.592 18.213 19.592 18.301V18.455C19.592 18.543 19.571 18.622 19.529 18.692C19.489 18.761 19.419 18.795 19.319 18.795C19.217 18.795 19.145 18.761 19.103 18.692C19.0609 18.6199 19.0394 18.5375 19.041 18.454H19.04ZM17.592 16.79V16.636C17.5908 16.5532 17.613 16.4718 17.656 16.401C17.699 16.331 17.771 16.295 17.87 16.295C17.972 16.295 18.044 16.33 18.083 16.4C18.123 16.47 18.143 16.548 18.143 16.636V16.79C18.143 16.878 18.123 16.957 18.08 17.027C18.04 17.097 17.97 17.131 17.87 17.131C17.768 17.131 17.696 17.096 17.654 17.027C17.6121 16.9551 17.5907 16.8732 17.592 16.79Z" fill="#161616"/>
<path d="M16.088 21.5561C17.3907 21.5561 18.6401 21.0385 19.5613 20.1174C20.4825 19.1962 21 17.9468 21 16.6441C21 15.3413 20.4825 14.0919 19.5613 13.1707C18.6401 12.2496 17.3907 11.7321 16.088 11.7321C14.7853 11.7321 13.5359 12.2496 12.6147 13.1707C11.6935 14.0919 11.176 15.3413 11.176 16.6441C11.176 17.9468 11.6935 19.1962 12.6147 20.1174C13.5359 21.0385 14.7853 21.5561 16.088 21.5561ZM14.106 18.9001C13.8717 18.8071 13.6654 18.6552 13.507 18.4591C13.3643 18.2791 13.2877 18.0557 13.29 17.8261C13.29 17.6441 13.331 17.4771 13.413 17.3261C13.4953 17.1739 13.6121 17.0431 13.754 16.9441C13.898 16.8421 14.058 16.7761 14.236 16.7481V16.7181C14.0124 16.6769 13.8111 16.5565 13.669 16.3791C13.5253 16.2016 13.4485 15.9794 13.452 15.7511C13.452 15.5251 13.518 15.3241 13.65 15.1481C13.782 14.9701 13.963 14.8311 14.193 14.7301C14.425 14.6281 14.688 14.5771 14.982 14.5771C15.276 14.5771 15.538 14.6271 15.768 14.7301C15.999 14.8321 16.181 14.9721 16.313 15.1501C16.4437 15.3227 16.514 15.5335 16.513 15.7501C16.516 15.9796 16.4377 16.2027 16.292 16.3801C16.1504 16.5559 15.9508 16.6757 15.729 16.7181V16.7481C15.904 16.7761 16.063 16.8421 16.205 16.9441C16.348 17.0441 16.462 17.1721 16.545 17.3251C16.6441 17.5017 16.6885 17.7037 16.6726 17.9056C16.6568 18.1074 16.5814 18.3001 16.456 18.4591C16.2973 18.655 16.0906 18.8066 15.856 18.8991C15.601 19.0061 15.31 19.0591 14.982 19.0591C14.653 19.0591 14.362 19.0061 14.106 18.8991V18.9001ZM18.751 18.3011C18.751 18.1951 18.773 18.0981 18.816 18.0101C18.8614 17.9169 18.9335 17.8392 19.023 17.7869C19.1125 17.7346 19.2155 17.7099 19.319 17.7161C19.4279 17.712 19.5356 17.7398 19.629 17.7961C19.7112 17.8479 19.7767 17.9221 19.818 18.0101C19.8612 18.1009 19.8831 18.2004 19.882 18.3011V18.4551C19.8828 18.5562 19.8602 18.6561 19.816 18.7471C19.7717 18.8398 19.7007 18.9171 19.6122 18.9693C19.5236 19.0215 19.4216 19.0461 19.319 19.0401C19.2098 19.0436 19.1019 19.0158 19.008 18.9601C18.9255 18.9082 18.859 18.8345 18.816 18.7471C18.772 18.6557 18.7497 18.5554 18.751 18.4541V18.3011ZM17.302 16.6361C17.302 16.5301 17.324 16.4331 17.367 16.3461C17.4103 16.258 17.4776 16.1838 17.561 16.1321C17.6545 16.0762 17.7621 16.0484 17.871 16.0521C17.993 16.0521 18.097 16.0781 18.18 16.1321C18.262 16.1835 18.3276 16.2575 18.369 16.3451C18.4122 16.4359 18.4341 16.5354 18.433 16.6361V16.7901C18.4337 16.8912 18.4111 16.9911 18.367 17.0821C18.3228 17.1748 18.2518 17.2523 18.1633 17.3045C18.0747 17.3567 17.9726 17.3813 17.87 17.3751C17.7612 17.3784 17.6536 17.3506 17.56 17.2951C17.4771 17.2434 17.4103 17.1696 17.367 17.0821C17.3232 16.991 17.3009 16.8911 17.302 16.7901V16.6361ZM19.41 16.0911H19.734L17.734 19.0001H17.41L19.41 16.0901V16.0911Z" fill="#161616"/>
<path d="M14.982 19.06C14.653 19.06 14.362 19.006 14.106 18.9C13.8717 18.807 13.6654 18.6551 13.507 18.459C13.3643 18.2791 13.2877 18.0556 13.29 17.826C13.29 17.644 13.331 17.477 13.413 17.326C13.497 17.172 13.611 17.045 13.754 16.944C13.898 16.842 14.058 16.776 14.236 16.748V16.718C14.0124 16.6769 13.8111 16.5566 13.669 16.379C13.5253 16.2016 13.4485 15.9793 13.452 15.751C13.452 15.525 13.518 15.324 13.65 15.148C13.791 14.9633 13.9784 14.8191 14.193 14.73C14.425 14.628 14.688 14.577 14.982 14.577C15.276 14.577 15.538 14.627 15.768 14.73C15.999 14.832 16.181 14.972 16.313 15.15C16.4437 15.3227 16.5139 15.5335 16.513 15.75C16.516 15.9795 16.4377 16.2027 16.292 16.38C16.1504 16.5559 15.9508 16.6757 15.729 16.718V16.748C15.904 16.776 16.063 16.842 16.205 16.944C16.348 17.044 16.462 17.172 16.545 17.325C16.6441 17.5016 16.6885 17.7037 16.6726 17.9055C16.6568 18.1074 16.5814 18.3 16.456 18.459C16.2973 18.655 16.0906 18.8066 15.856 18.899C15.601 19.006 15.31 19.059 14.982 19.059V19.06ZM14.982 18.382C15.114 18.3849 15.2449 18.3578 15.365 18.303C15.4689 18.2541 15.5574 18.1776 15.621 18.082C15.6841 17.9841 15.7165 17.8695 15.714 17.753C15.7164 17.6347 15.6833 17.5184 15.619 17.419C15.5544 17.3205 15.4647 17.2411 15.359 17.189C15.2421 17.1306 15.1127 17.1014 14.982 17.104C14.851 17.1016 14.7213 17.1307 14.604 17.189C14.4975 17.2406 14.4069 17.3201 14.342 17.419C14.2789 17.5188 14.2466 17.635 14.249 17.753C14.249 17.877 14.279 17.986 14.34 18.082C14.4041 18.178 14.4933 18.2545 14.598 18.303C14.708 18.356 14.837 18.383 14.982 18.383V18.382ZM14.982 16.432C15.104 16.432 15.212 16.408 15.308 16.358C15.4 16.3108 15.4771 16.2392 15.531 16.151C15.5859 16.0593 15.6139 15.9539 15.612 15.847C15.6144 15.7435 15.5872 15.6414 15.5338 15.5527C15.4803 15.464 15.4027 15.3923 15.31 15.346C15.2085 15.2943 15.0958 15.2686 14.982 15.271C14.8679 15.2688 14.7549 15.2945 14.653 15.346C14.5614 15.3914 14.4842 15.4613 14.43 15.548C14.3756 15.6381 14.3479 15.7418 14.35 15.847C14.3479 15.9522 14.3754 16.0559 14.4293 16.1462C14.4832 16.2365 14.5614 16.3099 14.655 16.358C14.751 16.408 14.859 16.433 14.982 16.433V16.432ZM18.75 18.454V18.301C18.75 18.195 18.773 18.098 18.816 18.01C18.8592 17.9224 18.9261 17.8486 19.009 17.797C19.1024 17.7408 19.21 17.7127 19.319 17.716C19.442 17.716 19.545 17.743 19.629 17.796C19.7112 17.8478 19.7768 17.9221 19.818 18.01C19.8612 18.1009 19.8831 18.2004 19.882 18.301V18.455C19.8828 18.5561 19.8602 18.6561 19.816 18.747C19.7717 18.8397 19.7007 18.9171 19.6122 18.9693C19.5236 19.0215 19.4216 19.0461 19.319 19.04C19.2098 19.0435 19.1019 19.0158 19.008 18.96C18.9255 18.9082 18.859 18.8345 18.816 18.747C18.772 18.6557 18.7497 18.5554 18.751 18.454H18.75ZM19.04 18.301V18.455C19.04 18.543 19.061 18.622 19.103 18.692C19.145 18.761 19.217 18.795 19.319 18.795C19.419 18.795 19.489 18.761 19.529 18.692C19.5715 18.62 19.5933 18.5376 19.592 18.454V18.301C19.5933 18.2184 19.5726 18.137 19.532 18.065C19.492 17.995 19.422 17.96 19.319 17.96C19.219 17.96 19.149 17.995 19.105 18.065C19.0618 18.1361 19.0396 18.2179 19.041 18.301H19.04ZM17.302 16.79V16.636C17.302 16.53 17.324 16.433 17.367 16.346C17.4103 16.2579 17.4775 16.1837 17.561 16.132C17.6545 16.0761 17.7621 16.0484 17.871 16.052C17.993 16.052 18.097 16.078 18.18 16.132C18.2621 16.1835 18.3276 16.2574 18.369 16.345C18.4122 16.4359 18.4341 16.5354 18.433 16.636V16.79C18.4337 16.8911 18.4111 16.9911 18.367 17.082C18.3228 17.1748 18.2518 17.2523 18.1633 17.3045C18.0747 17.3567 17.9726 17.3812 17.87 17.375C17.7612 17.3784 17.6536 17.3506 17.56 17.295C17.4771 17.2433 17.4103 17.1696 17.367 17.082C17.3231 16.991 17.3009 16.8911 17.302 16.79ZM17.592 16.636V16.79C17.592 16.878 17.612 16.957 17.654 17.027C17.696 17.097 17.768 17.131 17.87 17.131C17.97 17.131 18.04 17.096 18.08 17.027C18.1222 16.9553 18.144 16.8733 18.143 16.79V16.636C18.1442 16.5538 18.1235 16.4727 18.083 16.401C18.043 16.331 17.973 16.295 17.87 16.295C17.77 16.295 17.7 16.33 17.656 16.401C17.613 16.4718 17.5908 16.5532 17.592 16.636ZM17.41 19L19.41 16.09H19.734L17.734 19H17.41Z" fill="#161616"/>
</svg>
