<svg width="24" height="24" viewBox="0 0 24 24" fill="none" xmlns="http://www.w3.org/2000/svg">
<path d="M19.28 4.66995V13.3499C19.6262 13.4306 19.9618 13.5515 20.28 13.7099V3.64995C20.28 3.0983 20.0609 2.56924 19.6708 2.17916C19.2807 1.78909 18.7516 1.56995 18.2 1.56995H5.76C5.40345 1.5731 5.05382 1.66876 4.74532 1.84755C4.43681 2.02634 4.18 2.28215 4 2.58995H17.2C17.7516 2.58995 18.2807 2.80909 18.6708 3.19916C19.0609 3.58924 19.28 4.1183 19.28 4.66995Z" fill="#161616"/>
<path d="M18.24 13.24V5.77996C18.2374 5.23005 18.017 4.70355 17.6273 4.31564C17.2375 3.92772 16.7099 3.70995 16.16 3.70996H3.68C3.13008 3.70995 2.60253 3.92772 2.21274 4.31564C1.82295 4.70355 1.60264 5.23005 1.6 5.77996V19.31C1.6 19.8616 1.81914 20.3907 2.20922 20.7807C2.59929 21.1708 3.12835 21.39 3.68 21.39H14.4C13.8071 20.6591 13.4324 19.7758 13.3192 18.8415C13.2059 17.9073 13.3586 16.96 13.7597 16.1087C14.1609 15.2573 14.7941 14.5365 15.5867 14.029C16.3792 13.5215 17.2989 13.248 18.24 13.24ZM12.41 11.54C12.505 11.5267 12.6019 11.5356 12.6929 11.5661C12.7839 11.5965 12.8665 11.6477 12.9344 11.7156C13.0023 11.7834 13.0534 11.8661 13.0839 11.9571C13.1144 12.0481 13.1233 12.1449 13.11 12.24C13.1237 12.3346 13.115 12.4312 13.0846 12.5219C13.0541 12.6126 13.0027 12.6949 12.9346 12.762C12.8664 12.8292 12.7834 12.8794 12.6923 12.9086C12.6012 12.9377 12.5045 12.9451 12.41 12.93H10.65V13.56H12.41C12.505 13.5467 12.6019 13.5556 12.6929 13.5861C12.7839 13.6165 12.8665 13.6677 12.9344 13.7356C13.0023 13.8034 13.0534 13.8861 13.0839 13.9771C13.1144 14.0681 13.1233 14.1649 13.11 14.26C13.1237 14.3546 13.115 14.4512 13.0846 14.5419C13.0541 14.6326 13.0027 14.7149 12.9346 14.782C12.8664 14.8492 12.7834 14.8994 12.6923 14.9286C12.6012 14.9577 12.5045 14.9651 12.41 14.95H10.65V16.4C10.6788 16.6263 10.6294 16.8556 10.51 17.05C10.3382 17.1789 10.1232 17.2363 9.91 17.21C9.70722 17.2241 9.50582 17.1675 9.34 17.05C9.20059 16.8638 9.13957 16.6305 9.17 16.4V15H7.43C7.33552 15.0151 7.23881 15.0077 7.14769 14.9786C7.05657 14.9494 6.97359 14.8992 6.90545 14.832C6.83731 14.7649 6.78592 14.6826 6.75545 14.5919C6.72497 14.5012 6.71625 14.4046 6.73 14.31C6.71526 14.2164 6.7225 14.1207 6.75115 14.0305C6.77979 13.9402 6.82905 13.8579 6.89503 13.79C6.961 13.7221 7.04188 13.6704 7.13127 13.6392C7.22065 13.608 7.31608 13.5979 7.41 13.61H9.17V12.98H7.43C7.33552 12.9951 7.23881 12.9877 7.14769 12.9586C7.05657 12.9294 6.97359 12.8792 6.90545 12.812C6.83731 12.7449 6.78592 12.6626 6.75545 12.5719C6.72497 12.4812 6.71625 12.3846 6.73 12.29C6.71526 12.1964 6.7225 12.1007 6.75115 12.0105C6.77979 11.9202 6.82905 11.8379 6.89503 11.77C6.961 11.7021 7.04188 11.6504 7.13127 11.6192C7.22065 11.588 7.31608 11.5779 7.41 11.59H8.41L7.63 10.3L6.87 9.05996C6.74931 8.89236 6.69906 8.68416 6.73 8.47996C6.76252 8.3104 6.85925 8.15994 7 8.05996C7.1488 7.93911 7.33918 7.88164 7.53 7.89996C7.69 7.89996 7.85 8.05996 8 8.30996L9.9 11.48L10.82 9.90996C11.13 9.38996 11.44 8.90996 11.74 8.34996C11.8115 8.22274 11.8988 8.10513 12 7.99996C12.0628 7.93049 12.1475 7.88461 12.24 7.86996C12.3215 7.8452 12.4085 7.8452 12.49 7.86996L12.76 8.00996C12.8433 8.05035 12.9162 8.10916 12.9734 8.18192C13.0306 8.25469 13.0705 8.33951 13.09 8.42996C13.0925 8.63281 13.0332 8.8316 12.92 8.99996L11.42 11.48L12.41 11.54Z" fill="#161616"/>
<rect x="14.2395" y="14.1902" width="8" height="8" rx="4" fill="#161616"/>
<path d="M18.2395 14.1902C17.4483 14.1902 16.675 14.4248 16.0172 14.8643C15.3594 15.3038 14.8467 15.9285 14.5439 16.6595C14.2412 17.3904 14.162 18.1946 14.3163 18.9705C14.4707 19.7465 14.8516 20.4592 15.411 21.0186C15.9704 21.578 16.6832 21.959 17.4591 22.1133C18.235 22.2677 19.0393 22.1885 19.7702 21.8857C20.5011 21.583 21.1258 21.0703 21.5653 20.4125C22.0049 19.7547 22.2395 18.9813 22.2395 18.1902C22.2395 17.1293 21.818 16.1119 21.0679 15.3618C20.3177 14.6116 19.3003 14.1902 18.2395 14.1902ZM20.6095 17.2802L18.8195 19.1602C18.7733 19.209 18.7174 19.2476 18.6554 19.2734C18.5934 19.2992 18.5266 19.3118 18.4595 19.3102C18.3286 19.2919 18.2046 19.2403 18.0995 19.1602L17.5295 18.5802L16.6095 19.6302C16.5612 19.6832 16.5026 19.7256 16.4372 19.7549C16.3718 19.7841 16.3011 19.7996 16.2295 19.8002C16.1073 19.7986 15.9899 19.7524 15.8995 19.6702C15.8078 19.5767 15.7565 19.4511 15.7565 19.3202C15.7565 19.1893 15.8078 19.0636 15.8995 18.9702L17.1795 17.5102C17.2728 17.4089 17.4019 17.3479 17.5395 17.3402C17.6083 17.3372 17.6769 17.349 17.7408 17.3749C17.8046 17.4008 17.8622 17.4401 17.9095 17.4902L18.4995 18.0902L19.9295 16.5902C19.9732 16.5371 20.0275 16.4937 20.0888 16.4625C20.1502 16.4314 20.2173 16.4133 20.2859 16.4093C20.3546 16.4053 20.4234 16.4154 20.4879 16.4392C20.5525 16.463 20.6114 16.4998 20.6611 16.5474C20.7107 16.595 20.75 16.6523 20.7765 16.7158C20.803 16.7793 20.8161 16.8476 20.8151 16.9163C20.814 16.9851 20.7987 17.0529 20.7702 17.1155C20.7417 17.1781 20.7006 17.2342 20.6495 17.2802H20.6095Z" fill="#161616"/>
<path d="M20.7215 16.9183H21.2543L20.1239 18.0199L21.4235 19.4887H20.8547L19.8395 18.2971L19.5263 18.6031V19.4887H19.1051V16.9183H19.5263V18.1315L20.7215 16.9183Z" fill="white"/>
<path d="M15.4395 16.9183H15.9147L16.3971 18.8731H16.4115L16.9191 16.9183H17.3547L17.8623 18.8731H17.8767L18.3591 16.9183H18.8343L18.0927 19.4887H17.6463L17.1459 17.5555H17.1315L16.6275 19.4887H16.1775L15.4395 16.9183Z" fill="white"/>
<rect x="4.8" y="5.08826" width="8.4" height="13.2" fill="#161616"/>
<g clip-path="url(#clip0_5701_56651)">
<path d="M12.3946 13.5482C12.3946 14.5144 11.7212 15.3399 10.4736 15.5461V16.6649H9.39766V15.6327C8.66957 15.6003 7.96452 15.3941 7.55176 15.1655L7.87682 13.8951C8.33284 14.1446 8.97373 14.3733 9.67994 14.3733C10.3101 14.3733 10.7331 14.1237 10.7331 13.7003C10.7331 13.2877 10.3847 13.0264 9.57039 12.7545C8.40936 12.3634 7.61687 11.8211 7.61687 10.7675C7.61687 9.80126 8.28913 9.05134 9.45063 8.83414V7.80237H10.5159V8.75764C11.2326 8.77998 11.7212 8.94202 12.1013 9.11691L11.7753 10.344C11.5035 10.2129 10.993 9.9629 10.2113 9.9629C9.50624 9.9629 9.2774 10.278 9.2774 10.5822C9.2774 10.9291 9.6581 11.1691 10.592 11.5046C11.8837 11.9613 12.3941 12.5587 12.3946 13.5482Z" fill="white"/>
</g>
<defs>
<clipPath id="clip0_5701_56651">
<rect width="10" height="10" fill="white" transform="translate(5 7.24023)"/>
</clipPath>
</defs>
</svg>
