<svg width="20" height="20" viewBox="0 0 20 20" fill="none" xmlns="http://www.w3.org/2000/svg">
<g clip-path="url(#clip0_5701_56628)">
<path d="M15.5 1C15.2239 1 15 0.776142 15 0.5C15 0.223858 14.7761 0 14.5 0H13.5C13.2239 0 13 0.223858 13 0.5C13 0.776142 12.7761 1 12.5 1H7.5C7.22386 1 7 0.776142 7 0.5C7 0.223858 6.77614 0 6.5 0H5.5C5.22386 0 5 0.223858 5 0.5C5 0.776142 4.77614 1 4.5 1H1C0.447715 1 0 1.44772 0 2V19C0 19.5523 0.447715 20 1 20H19C19.5523 20 20 19.5523 20 19V2C20 1.44771 19.5523 1 19 1H15.5ZM10 15.83L9.29461 16.5354C8.90506 16.9249 8.27383 16.9261 7.8829 16.5379L7.17 15.83L5.045 13.705C4.65564 13.3156 4.65564 12.6844 5.045 12.295C5.43436 11.9056 6.06564 11.9056 6.455 12.295L7.87289 13.7129C8.26342 14.1034 8.89658 14.1034 9.28711 13.7129L13.5347 9.46531C13.9242 9.07578 14.5558 9.07578 14.9453 9.46531C15.3346 9.8546 15.3349 10.4857 14.9459 10.8753L10 15.83ZM3 6C2.44772 6 2 5.55228 2 5V4C2 3.44772 2.44772 3 3 3H4.5C4.77614 3 5 3.22386 5 3.5C5 3.77614 5.22386 4 5.5 4H6.5C6.77614 4 7 3.77614 7 3.5C7 3.22386 7.22386 3 7.5 3H12.5C12.7761 3 13 3.22386 13 3.5C13 3.77614 13.2239 4 13.5 4H14.5C14.7761 4 15 3.77614 15 3.5C15 3.22386 15.2239 3 15.5 3H17C17.5523 3 18 3.44772 18 4V5C18 5.55229 17.5523 6 17 6H3Z" fill="#161616"/>
</g>
<defs>
<clipPath id="clip0_5701_56628">
<rect width="20" height="20" fill="white"/>
</clipPath>
</defs>
</svg>
