<svg width="24" height="24" viewBox="0 0 24 24" fill="none" xmlns="http://www.w3.org/2000/svg">
<path d="M18.6656 0H5.33436C3.86249 0 2.66718 1.19297 2.66718 2.66719V21.3328C2.66718 22.8047 3.86014 24 5.33436 24H18.668C20.1398 24 21.3351 22.807 21.3351 21.3328V2.66719C21.3328 1.19297 20.1398 0 18.6656 0ZM12.9422 21.7266C12.6914 21.9773 12.3539 22.118 12 22.118C11.2641 22.118 10.6664 21.5203 10.6664 20.7844C10.6664 20.0484 11.2641 19.4508 12 19.4508C12.7359 19.4508 13.3336 20.0484 13.3336 20.7844C13.3336 21.1359 13.193 21.4758 12.9422 21.7266ZM18.6141 15.9914C18.6141 16.3453 18.4734 16.6828 18.2273 16.9336C17.9789 17.1844 17.6437 17.3227 17.2922 17.3227H6.7078C6.35624 17.3227 6.02108 17.182 5.77264 16.9336C5.52421 16.6828 5.38593 16.3453 5.38593 15.9914V4.00781C5.38593 3.27187 5.97889 2.67656 6.7078 2.67656H17.2922C17.6437 2.67656 17.9789 2.81719 18.2273 3.06563C18.4758 3.31641 18.6141 3.65391 18.6141 4.00781V15.9914Z" fill="#161616"/>
<path d="M14.1516 9.90002L12.8273 11.2242V6.38674C12.8273 5.92502 12.4547 5.55237 11.993 5.55237C11.5313 5.55237 11.1586 5.92502 11.1586 6.38674V11.2242L9.83673 9.90002C9.51094 9.57424 8.9836 9.57424 8.65782 9.90002C8.33204 10.2258 8.33204 10.7531 8.65782 11.0789L11.4023 13.8258C11.5594 13.9828 11.7703 14.0696 11.9906 14.0696C12.2109 14.0696 12.4242 13.9805 12.5789 13.8258L15.3258 11.0789C15.6516 10.7531 15.6516 10.2258 15.3258 9.90002C15 9.57424 14.4773 9.57659 14.1516 9.90002Z" fill="#161616"/>
</svg>
