<svg width="40" height="40" viewBox="0 0 40 40" fill="none" xmlns="http://www.w3.org/2000/svg">
<rect width="40" height="40" rx="20" fill="#F8F9FD"/>
<path d="M24.1667 19.167H15.8333C14.9129 19.167 14.1667 19.9132 14.1667 20.8337V25.8337C14.1667 26.7541 14.9129 27.5003 15.8333 27.5003H24.1667C25.0871 27.5003 25.8333 26.7541 25.8333 25.8337V20.8337C25.8333 19.9132 25.0871 19.167 24.1667 19.167Z" stroke="#94A3B8" stroke-width="1.5" stroke-linecap="round" stroke-linejoin="round"/>
<path d="M20 24.1667C20.4602 24.1667 20.8333 23.7936 20.8333 23.3333C20.8333 22.8731 20.4602 22.5 20 22.5C19.5398 22.5 19.1667 22.8731 19.1667 23.3333C19.1667 23.7936 19.5398 24.1667 20 24.1667Z" stroke="#94A3B8" stroke-width="1.5" stroke-linecap="round" stroke-linejoin="round"/>
<path d="M16.6667 19.1667V15.8333C16.6667 14.9493 17.0179 14.1014 17.643 13.4763C18.2681 12.8512 19.1159 12.5 20 12.5C20.8841 12.5 21.7319 12.8512 22.357 13.4763C22.9821 14.1014 23.3333 14.9493 23.3333 15.8333V19.1667" stroke="#94A3B8" stroke-width="1.5" stroke-linecap="round" stroke-linejoin="round"/>
</svg>
