<svg width="40" height="40" viewBox="0 0 40 40" fill="none" xmlns="http://www.w3.org/2000/svg">
<rect width="40" height="40" rx="20" fill="#F8F9FD"/>
<path d="M20 11.2617C24.8256 11.2617 28.7383 15.1744 28.7383 20C28.7383 24.8256 24.8256 28.7383 20 28.7383C15.1744 28.7383 11.2617 24.8256 11.2617 20C11.2617 15.1744 15.1744 11.2617 20 11.2617ZM20 12.7227C15.9818 12.7227 12.7227 15.9818 12.7227 20C12.7227 24.0182 15.9818 27.2773 20 27.2773C24.0182 27.2773 27.2773 24.0182 27.2773 20C27.2773 15.9818 24.0182 12.7227 20 12.7227Z" fill="#94A3B8" stroke="#94A3B8" stroke-width="0.0234375"/>
<path d="M20 23.5273C20.2041 23.5273 20.3996 23.6086 20.5439 23.7529C20.6883 23.8972 20.7695 24.0928 20.7695 24.2969C20.7695 24.501 20.6883 24.6965 20.5439 24.8408C20.3996 24.9851 20.2041 25.0664 20 25.0664C19.7959 25.0664 19.6004 24.9851 19.4561 24.8408C19.3117 24.6965 19.2305 24.501 19.2305 24.2969C19.2305 24.0928 19.3117 23.8972 19.4561 23.7529C19.6004 23.6086 19.7959 23.5273 20 23.5273ZM20 15.4023C20.8176 15.4023 21.5882 15.6827 22.1719 16.1943C22.7789 16.7255 23.1133 17.4392 23.1113 18.2031L23.1025 18.4121C23.0171 19.4506 22.2992 20.366 21.2227 20.7803C21.0436 20.8494 20.8893 20.9709 20.7803 21.1289C20.6713 21.2869 20.6124 21.4741 20.6113 21.666V22.1094C20.6113 22.1888 20.5463 22.2539 20.4668 22.2539H19.5293C19.4498 22.2539 19.3848 22.1888 19.3848 22.1094V21.6895C19.3848 21.2406 19.5171 20.7978 19.7715 20.4287C20.0221 20.0674 20.3714 19.7912 20.7832 19.6338C21.4527 19.3766 21.8867 18.8164 21.8867 18.2031C21.8867 17.3334 21.0376 16.6289 20 16.6289C18.9624 16.6289 18.1133 17.3334 18.1133 18.2031V18.3516C18.1133 18.431 18.0482 18.4961 17.9688 18.4961H17.0312C16.9518 18.4961 16.8867 18.431 16.8867 18.3516V18.2031C16.8867 17.4391 17.2211 16.7255 17.8281 16.1943C18.4118 15.6846 19.1824 15.4023 20 15.4023Z" fill="#94A3B8" stroke="#94A3B8" stroke-width="0.0234375"/>
</svg>
