<svg width="40" height="40" viewBox="0 0 40 40" fill="none" xmlns="http://www.w3.org/2000/svg">
<rect width="40" height="40" rx="20" fill="#F8F9FD"/>
<path d="M20.015 13.1826C17.5325 13.1826 15.515 15.2001 15.515 17.6826V19.8501C15.515 20.3076 15.32 21.0051 15.0875 21.3951L14.225 22.8276C13.6925 23.7126 14.06 24.6951 15.035 25.0251C18.2675 26.1051 21.755 26.1051 24.9875 25.0251C25.895 24.7251 26.2925 23.6526 25.7975 22.8276L24.935 21.3951C24.71 21.0051 24.515 20.3076 24.515 19.8501V17.6826C24.515 15.2076 22.49 13.1826 20.015 13.1826Z" stroke="#94A3B8" stroke-width="1.5" stroke-miterlimit="10" stroke-linecap="round"/>
<path d="M21.4025 13.4001C21.17 13.3326 20.93 13.2801 20.6825 13.2501C19.9625 13.1601 19.2725 13.2126 18.6275 13.4001C18.845 12.8451 19.385 12.4551 20.015 12.4551C20.645 12.4551 21.185 12.8451 21.4025 13.4001Z" stroke="#94A3B8" stroke-width="1.5" stroke-miterlimit="10" stroke-linecap="round" stroke-linejoin="round"/>
<path d="M22.265 25.2949C22.265 26.5324 21.2525 27.5449 20.015 27.5449C19.4 27.5449 18.83 27.2899 18.425 26.8849C18.02 26.4799 17.765 25.9099 17.765 25.2949" stroke="#94A3B8" stroke-width="1.5" stroke-miterlimit="10"/>
</svg>
