<svg width="20" height="20" viewBox="0 0 20 20" fill="none" xmlns="http://www.w3.org/2000/svg">
<path d="M14.1625 3.3335H5.82916C2.6375 3.3335 1.74583 4.10016 1.67083 7.0835C3.27916 7.0835 4.57916 8.39183 4.57916 10.0002C4.57916 11.6085 3.27916 12.9085 1.67083 12.9168C1.74583 15.9002 2.6375 16.6668 5.82916 16.6668H14.1625C17.4958 16.6668 18.3292 15.8335 18.3292 12.5002V7.50016C18.3292 4.16683 17.4958 3.3335 14.1625 3.3335Z" stroke="#292D32" stroke-width="1.5" stroke-linecap="round" stroke-linejoin="round"/>
<path d="M7.4944 3.3335V6.25016" stroke="#292D32" stroke-width="1.5" stroke-linecap="round" stroke-linejoin="round"/>
<path d="M7.4944 13.75V16.6667" stroke="#292D32" stroke-width="1.5" stroke-linecap="round" stroke-linejoin="round"/>
<path d="M12.5208 7.7748L13.0375 8.81647C13.0875 8.91647 13.1875 8.99147 13.2958 9.00814L14.4458 9.1748C14.7292 9.21647 14.8458 9.56647 14.6375 9.76647L13.8042 10.5748C13.7208 10.6498 13.6875 10.7665 13.7042 10.8831L13.9042 12.0248C13.9542 12.3081 13.6542 12.5248 13.4042 12.3915L12.3792 11.8498C12.2792 11.7998 12.1542 11.7998 12.0542 11.8498L11.0292 12.3915C10.7708 12.5248 10.4792 12.3081 10.5292 12.0248L10.7292 10.8831C10.7458 10.7665 10.7125 10.6581 10.6292 10.5748L9.80417 9.76647C9.59583 9.56647 9.7125 9.21647 9.99583 9.1748L11.1458 9.00814C11.2625 8.99147 11.3542 8.9248 11.4042 8.81647L11.9125 7.7748C12.0292 7.51647 12.3958 7.51647 12.5208 7.7748Z" stroke="#292D32" stroke-width="1.5" stroke-linecap="round" stroke-linejoin="round"/>
</svg>
