<svg width="20" height="20" viewBox="0 0 20 20" fill="none" xmlns="http://www.w3.org/2000/svg">
<path d="M16.6667 6.87484V14.9998C16.6667 17.4998 15.175 18.3332 13.3333 18.3332H6.66666C4.82499 18.3332 3.33333 17.4998 3.33333 14.9998V6.87484C3.33333 4.1665 4.82499 3.5415 6.66666 3.5415C6.66666 4.05817 6.87497 4.52483 7.21664 4.8665C7.55831 5.20817 8.02499 5.4165 8.54166 5.4165H11.4583C12.4917 5.4165 13.3333 4.57484 13.3333 3.5415C15.175 3.5415 16.6667 4.1665 16.6667 6.87484Z" stroke="#292D32" stroke-width="1.5" stroke-linecap="round" stroke-linejoin="round"/>
<path d="M13.3333 3.5415C13.3333 4.57484 12.4917 5.4165 11.4583 5.4165H8.54167C8.02501 5.4165 7.55832 5.20817 7.21665 4.8665C6.87498 4.52483 6.66667 4.05817 6.66667 3.5415C6.66667 2.50817 7.50834 1.6665 8.54167 1.6665H11.4583C11.975 1.6665 12.4417 1.87484 12.7834 2.21651C13.125 2.55817 13.3333 3.02484 13.3333 3.5415Z" stroke="#292D32" stroke-width="1.5" stroke-linecap="round" stroke-linejoin="round"/>
<path d="M6.66667 10.8335H10" stroke="#292D32" stroke-width="1.5" stroke-linecap="round" stroke-linejoin="round"/>
<path d="M6.66667 14.1665H13.3333" stroke="#292D32" stroke-width="1.5" stroke-linecap="round" stroke-linejoin="round"/>
</svg>
