<svg width="20" height="20" viewBox="0 0 20 20" fill="none" xmlns="http://www.w3.org/2000/svg">
  <path d="M4.16669 5.4165H14.25L15.8334 6.99984V14.1665C15.8334 15.3165 15.3167 15.8332 14.1667 15.8332H5.83335C4.68335 15.8332 4.16669 15.3165 4.16669 14.1665V5.4165Z" stroke="#7CFFB2" stroke-width="1.5" stroke-linecap="round" stroke-linejoin="round"/>
  <path d="M14.25 5.4165V6.58317C14.25 7.2665 14.8167 7.83317 15.5 7.83317H15.8334" stroke="#7CFFB2" stroke-width="1.5" stroke-linecap="round" stroke-linejoin="round"/>
  <path d="M6.66669 9.1665H13.3334" stroke="#7CFFB2" stroke-width="1.5" stroke-linecap="round" stroke-linejoin="round"/>
  <path d="M6.66669 12.0835H9.58335" stroke="#7CFFB2" stroke-width="1.5" stroke-linecap="round" stroke-linejoin="round"/>
  <path d="M12.7084 11.2498L13.125 12.0915C13.1667 12.1748 13.2417 12.2332 13.3334 12.2498L14.2584 12.3832C14.4834 12.4165 14.575 12.6998 14.4167 12.8582L13.75 13.5082C13.6834 13.5748 13.65 13.6665 13.6667 13.7582L13.825 14.6748C13.8667 14.8998 13.625 15.0832 13.425 14.9748L12.6 14.5415C12.525 14.4998 12.4334 14.4998 12.35 14.5415L11.5334 14.9748C11.3334 15.0832 11.0917 14.8998 11.1334 14.6748L11.2917 13.7582C11.3084 13.6665 11.275 13.5665 11.2084 13.5082L10.5417 12.8582C10.375 12.6998 10.4667 12.4165 10.7 12.3832L11.625 12.2498C11.7084 12.2332 11.7917 12.1748 11.8334 12.0915L12.2417 11.2498C12.3417 11.0415 12.6084 11.0415 12.7084 11.2498Z" fill="#7CFFB2"/>
</svg>
